<svg width="24" height="24" viewBox="-8 -8 28 28" fill="none" xmlns="http://www.w3.org/2000/svg">
<path d="M17.3149 10.3494C16.9422 10.6061 16.5415 10.6694 16.0915 10.6483C16.088 12.5014 16.1056 14.3157 16.0809 16.1617C16.0634 17.1462 15.2232 17.9725 14.2389 17.9901C13.2545 18.0077 12.2667 17.9972 11.2788 17.9936C10.9625 17.9936 10.7515 17.7651 10.7515 17.4275C10.748 16.5942 10.7515 15.7609 10.748 14.9275C10.748 14.379 10.748 13.827 10.748 13.2784C10.7445 12.7123 10.3894 12.3502 9.81642 12.3431C9.27855 12.3361 8.74069 12.3361 8.20282 12.3431C7.64387 12.3502 7.28529 12.7158 7.28529 13.2749C7.28178 14.6357 7.28178 15.9929 7.28178 17.3537C7.28178 17.8073 7.09194 17.9972 6.63493 17.9972C5.74201 17.9972 4.84909 17.9972 3.95616 17.9972C2.77849 17.9936 1.94181 17.1709 1.93478 15.9894C1.92775 14.2102 1.93126 12.4275 1.93126 10.6483C0.300095 10.803 -0.649076 8.96758 0.518053 7.78263C2.92965 5.37052 5.34125 2.95842 7.75636 0.549826C7.90753 0.391598 8.0833 0.261499 8.27665 0.156013C8.83912 -0.125282 9.71447 -0.0373775 10.2488 0.511148C11.6023 1.90004 12.9838 3.26081 14.3549 4.63212C15.406 5.68698 16.4501 6.74887 17.5188 7.78966C18.2219 8.47532 18.1551 9.79037 17.3149 10.3494Z" fill="#ffffff"/>
</svg>
