<svg width="25" height="24" viewBox="0 0 25 24" fill="none" xmlns="http://www.w3.org/2000/svg">
<path d="M10.9431 11.0615C12.1332 9.71235 13.6525 7.57276 14.0778 5.08257C15.3583 6.13877 17.3133 8.51127 16.1982 12.6295C16.2794 12.6471 16.3609 12.6659 16.4428 12.6869C16.8777 12.5724 17.3244 12.5087 17.774 12.497C18.4647 9.39814 17.625 7.17204 16.6916 5.77183C15.9495 4.65438 14.9504 3.73111 13.7782 3.07921C13.5458 2.96289 13.2696 2.97539 13.0485 3.11203C12.8274 3.24867 12.6929 3.48996 12.6929 3.74993C12.6929 6.50201 10.7947 9.0106 9.54102 10.3671C9.55104 10.3777 9.5612 10.3876 9.57109 10.3985C10.0561 10.5569 10.5176 10.78 10.9431 11.0615Z" fill="#333F6D"/>
<path d="M9.14865 11.0516C8.26233 10.0256 7.22535 9.49314 6.20939 9.54217C5.24657 9.59051 4.36313 10.163 3.72153 11.1547C2.82724 12.5377 2.75954 14.2986 3.54479 15.7463C4.33018 17.1939 5.84327 18.0972 7.49026 18.1015C7.80996 18.1014 8.12884 18.0674 8.4414 18.0001C9.60994 17.7534 10.6311 17.0494 11.2773 16.045C11.919 15.0536 12.0795 14.0131 11.7292 13.1151C11.3591 12.1669 10.4474 11.4401 9.14865 11.0516Z" fill="#333F6D"/>
<path d="M19.7305 13.7949C18.9049 13.1998 17.7447 13.0849 16.4431 13.4645C15.1417 13.085 13.9814 13.1997 13.1559 13.7949C12.3738 14.3583 11.9431 15.3188 11.9431 16.5001C11.9431 18.9854 13.9579 21.0001 16.4431 21.0001C18.9285 21.0001 20.9431 18.9854 20.9431 16.5001C20.9431 15.3188 20.5125 14.3583 19.7305 13.7949Z" fill="#333F6D"/>
</svg>
