<svg width="25" height="24" viewBox="0 0 25 24" fill="none" xmlns="http://www.w3.org/2000/svg">
<path d="M20.0284 7.72557L17.4197 6.53809V15.2264L19.3675 11.0318H19.3328L20.411 8.72511C20.5832 8.3452 20.4127 7.89989 20.0284 7.72557Z" fill="#333F6D"/>
<path d="M15.5951 4.00056C15.5917 4.00068 15.5883 4.0008 15.5848 4.00096H5.75871C5.20648 3.9962 4.75485 4.43222 4.75004 4.9748C4.75 4.98053 4.75 4.98625 4.75004 4.99198V19.5153C4.74523 20.0579 5.18899 20.5016 5.74126 20.5063C5.74709 20.5064 5.75292 20.5064 5.75875 20.5063H15.5849C16.1462 20.53 16.6209 20.1021 16.645 19.5506C16.6459 19.5303 16.6461 19.51 16.6458 19.4897V4.96631C16.627 4.4146 16.1566 3.98222 15.5951 4.00056ZM7.78481 6.63222H7.75873L7.08047 7.55488C7.01186 7.65776 6.89231 7.71646 6.76742 7.70865C6.6429 7.7147 6.52416 7.65639 6.45438 7.55488L5.75003 6.63222C5.63948 6.49763 5.63948 6.30549 5.75003 6.17089L6.45438 5.2397C6.60951 5.07219 6.87352 5.05998 7.04403 5.21243C7.05373 5.22108 7.06298 5.23021 7.07178 5.2397L7.77613 6.17089C7.89263 6.3022 7.8963 6.49678 7.78481 6.63222ZM13.3327 12.4672H13.3153L10.9587 15.5427C10.8901 15.6456 10.7706 15.7043 10.6457 15.6965C10.5215 15.7009 10.4036 15.643 10.3327 15.5427L7.97615 12.4672C7.88126 12.3306 7.88126 12.1509 7.97615 12.0144L10.3587 8.89614C10.4992 8.72862 10.7513 8.70476 10.9218 8.84275C10.9416 8.85877 10.9598 8.87667 10.9762 8.89614L13.3327 11.9973C13.4683 12.1335 13.4787 12.3411 13.3327 12.4672ZM15.5848 18.2936L14.9066 19.2248C14.838 19.3277 14.7184 19.3864 14.5935 19.3786C14.4693 19.383 14.3514 19.325 14.2805 19.2248L13.5587 18.2936C13.4529 18.1542 13.4529 17.9631 13.5587 17.8237L14.2631 16.9011C14.4036 16.7336 14.6556 16.7097 14.8261 16.8477C14.846 16.8637 14.8641 16.8816 14.8805 16.9011L15.5848 17.8237C15.7039 17.9634 15.7118 18.1604 15.5848 18.2936Z" fill="#333F6D"/>
<path d="M21.1239 13.3986L19.8021 11.895L17.3848 17.0893V17.2687L21.0891 14.0821C21.2892 13.902 21.3047 13.5974 21.1239 13.3986Z" fill="#333F6D"/>
</svg>
