<svg width="31" height="24" viewBox="0 0 31 24" fill="none" xmlns="http://www.w3.org/2000/svg">
<path d="M15.5 4C10.8131 4 7.00002 7.39986 7.00002 11.5789C7.00002 13.0397 7.46639 14.4547 8.35095 15.6783C8.1835 17.5133 7.73471 18.8755 7.08304 19.5208C6.99691 19.6062 6.97537 19.7367 7.02977 19.8445C7.07794 19.9408 7.17711 20 7.28336 20C7.29639 20 7.30942 19.9992 7.32274 19.9972C7.43749 19.9812 10.1031 19.6011 12.0312 18.4985C13.126 18.9361 14.2922 19.1579 15.5 19.1579C20.1869 19.1579 24 15.758 24 11.5789C24 7.39986 20.1869 4 15.5 4ZM11.5333 12.7018C10.9083 12.7018 10.4 12.1982 10.4 11.5789C10.4 10.9597 10.9083 10.4561 11.5333 10.4561C12.1584 10.4561 12.6667 10.9597 12.6667 11.5789C12.6667 12.1982 12.1584 12.7018 11.5333 12.7018ZM15.5 12.7018C14.875 12.7018 14.3667 12.1982 14.3667 11.5789C14.3667 10.9597 14.875 10.4561 15.5 10.4561C16.125 10.4561 16.6333 10.9597 16.6333 11.5789C16.6333 12.1982 16.125 12.7018 15.5 12.7018ZM19.4667 12.7018C18.8416 12.7018 18.3333 12.1982 18.3333 11.5789C18.3333 10.9597 18.8416 10.4561 19.4667 10.4561C20.0917 10.4561 20.6 10.9597 20.6 11.5789C20.6 12.1982 20.0917 12.7018 19.4667 12.7018Z" fill="#333F6D"/>
</svg>
