<svg width="16" height="14" viewBox="0 0 16 14" fill="none" xmlns="http://www.w3.org/2000/svg">
<path fill-rule="evenodd" clip-rule="evenodd" d="M6.10352e-05 1.14286C6.10352e-05 0.511675 0.511736 0 1.14292 0H14.8572C15.4884 0 16.0001 0.511675 16.0001 1.14286C16.0001 1.77404 15.4884 2.28571 14.8572 2.28571H1.14292C0.511736 2.28571 6.10352e-05 1.77404 6.10352e-05 1.14286ZM0.000115289 6.85719C0.000115289 6.226 0.51179 5.71433 1.14297 5.71433H14.8573C15.4884 5.71433 16.0001 6.226 16.0001 6.85719C16.0001 7.48837 15.4884 8.00004 14.8573 8.00004H1.14297C0.51179 8.00004 0.000115289 7.48837 0.000115289 6.85719ZM1.14297 11.4284C0.51179 11.4284 0.000115289 11.9401 0.000115289 12.5713C0.000115289 13.2025 0.51179 13.7142 1.14297 13.7142H14.8573C15.4884 13.7142 16.0001 13.2025 16.0001 12.5713C16.0001 11.9401 15.4884 11.4284 14.8573 11.4284H1.14297Z" fill="#424D84"/>
</svg>
